<svg version="1" xmlns="http://www.w3.org/2000/svg" width="1849.333" height="1849.333" viewBox="0 0 1387.000000 1387.000000"><path d="M665.5 52.9c-6.3 1.2-9.7 7.7-7.1 13.3 2.7 5.6 4.4 6.1 20.2 5.9l14.2-.2L695 75c1.4 1.9 2.5 5.6 3.1 9.8.4 3.7.8 212.6.9 464.3 0 505.2.5 468-6.1 483.2-7.4 16.9-51.4 158.5-65.9 212-7.7 28.4-10.3 41.8-10.4 53.7-.1 12.2 1.6 18.8 6.5 25.1 7.6 9.6 8.4 9.8 48.9 14.6 34.1 4 101.3.3 112.6-6.2 4.9-2.9 10.5-8.9 13.6-14.7 2-3.9 2.3-5.6 2.2-17.3 0-15.3-1.5-22.9-10.9-57.5-14.2-52.1-56.7-189.1-64.6-208.3-1.7-4-3.8-10.1-4.7-13.7-1.5-6-1.6-42.5-1.9-466-.2-264.5 0-463 .6-467.7.6-5.8 1.5-9 3.1-11.3l2.2-3.1 14.2.2c11.8.1 14.7-.1 16.8-1.5 2.6-1.7 4.8-5.5 4.8-8.4 0-3.2-3.9-8.2-6.8-8.8-3.1-.6-84.8-1.1-87.7-.5z"/><path d="M785 426c-13 2.3-25.9 5.2-37 8.3l-8.5 2.3-.3 10.2c-.1 5.6.1 10.2.6 10.2s3.3-.8 6.3-1.9c16.8-5.7 50.6-12.1 64.3-12.1 8.6 0 33 2.4 36.9 3.6 1.4.4.2 2-5.9 7.7-13.8 12.9-33.3 45.4-38.5 64.2-1.5 5.7-2.3 11.9-2.6 21.8-1 27.7 4 54.6 15.1 80.5 3.1 7.3 23.5 69 23.7 71.6 0 .6 4.3 4.6 9.4 8.8 8 6.7 9.3 7.4 8.5 5-6.5-19.7-11-34-11-34.6 0-.5 9.3 10.5 18.6 22.2 1.2 1.5 5.6 13 9.7 25.7l7.6 23 5.3 4.3c2.9 2.4 6.9 5.6 8.9 7.2l3.6 3-5.8-18.2c-3.3-10.1-5.9-18.5-5.9-18.9 0-.3 4.5 3.7 9.9 9l9.9 9.6 9.4 28.8 9.4 28.7 9.1 7.4 9 7.5-8.9-27.1c-4.9-14.9-8.7-27.2-8.6-27.3.2-.2 4.7 3.3 10.1 7.8l9.7 8.1 9.1 27.5 9 27.6 8.2 6.5c4.4 3.6 8.5 6.6 8.9 6.8.4.2-3.3-11.7-8.3-26.5-4.9-14.7-8.8-27.1-8.7-27.4.3-.6 15.1 9.5 19.8 13.4.8.7 5.7 14.1 10.9 29.7l9.4 28.5 8.4 6.9c4.6 3.7 8.6 6.6 8.8 6.4.2-.2-3.8-13.2-9-28.8-5.2-15.7-9.5-28.9-9.5-29.3 0-.5 1.5.1 3.3 1.2 1.7 1.2 7.3 4.7 12.4 7.7l9.2 5.6 9.2 27.5 9.1 27.5 7.5 6.1c4.1 3.4 8.1 6.5 8.8 6.9 1.2.7-2.9-12.9-13-43.1-2.5-7.4-4.3-13.6-4.1-13.9.3-.2 5.3 2.4 11.3 5.7l10.9 6.1 9.5 28.9 9.4 28.9 8.8 7.2c4.8 3.9 8.7 6.8 8.7 6.5 0-.4-4.5-14.5-10-31.3s-9.8-30.7-9.6-30.9c.2-.3 5.9 2.3 12.5 5.7l12.1 6.2 9.3 28.5 9.2 28.5 7 5.6c3.8 3.2 7.9 6.5 9.1 7.4 1.8 1.5.3-3.7-8.3-29.8-5.7-17.4-10.2-31.8-10-32.1.3-.2 5 1.5 10.6 3.8l10.1 4.3 9.7 29.1 9.7 29.2 9 7.3c4.9 4.1 8.7 6.7 8.4 5.9-2.6-6.6-20.9-64.2-20.5-64.5.2-.2 5.5 1.5 11.7 3.9l11.3 4.4 9.3 28.5 9.3 28.4 8.8 7.1c4.8 3.9 8.9 7 9 6.9.2-.1-4.5-14.5-10.3-32-5.8-17.4-10.4-32-10.1-32.3.6-.6 8.7 2 15.3 4.8l4.2 1.7 9.5 29.4 9.6 29.4 8.8 7.1c4.8 3.9 8.9 7 9 6.9.2-.1-4.7-15.2-10.8-33.5-6.1-18.3-10.9-33.4-10.7-33.7.6-.5 15.9 4.6 17.5 5.8.6.5 5.2 13.5 10.2 28.8l9.1 27.9 8.6 7.2c4.7 3.9 8.7 6.9 8.9 6.7.3-.2-4.3-14.7-10.1-32.2-5.8-17.4-10.4-32-10.1-32.3.3-.3 4.4.9 9.1 2.6 4.7 1.6 8.8 2.7 9 2.2 1.8-2.8 6.5-16.6 5.8-17.2-.4-.4-16.4-6.2-35.7-12.9-92.5-32.3-118.9-42.8-160-63.9-85.8-44-151.5-91.1-202.1-144.7-57.5-60.8-77.6-100.6-77.8-153.4-.1-19 .9-23.8 8-38.5 5.9-12.2 19.2-32.4 25.1-38 2.6-2.6 9.5-7.8 15.3-11.5 13.5-8.7 16-11.1 16-14.9 0-5.4-3.3-7.7-17.4-12.1-17.5-5.4-29.5-7.1-52.1-7.6-15.6-.3-20.9 0-29.5 1.6zM668 471.4c-31.3 21.3-52.1 45-78.7 89.6-24.7 41.5-28.2 48.4-44.4 86.3-19 44.7-29.5 64.9-43.8 84.7-6.4 8.9-35.4 38.1-49.6 49.9-44.7 37.2-100.9 70.7-147.9 88.1-32.1 11.9-82.7 24.4-149.1 36.9-26.9 5.1-60.7 12-61.2 12.5-.2.2.7 4.4 1.9 9.5 1.7 7.2 2.5 9 3.8 8.6.8-.3 3.6-.9 6.3-1.4 4.1-.7 4.7-.6 4.7.8 0 .9-3.3 18.3-7.4 38.6l-7.4 37 8.2-8.6 8.2-8.6 5.3-26.9c2.9-14.8 5.7-29 6.2-31.5l1-4.6 5.6-1.2c7.2-1.4 7.2-1.4 6.7.6-.3 1-3.8 18.6-7.8 39.1l-7.3 37.4 8.2-8.8 8.1-8.8 6.3-31.7 6.3-31.6 7-1.3c3.8-.6 7.2-1 7.5-.6.4.4-12.7 70.1-14.3 75.6-.2.8 3.3-2.4 7.9-7.1l8.2-8.7 5.8-29.8c3.2-16.5 6.2-30.8 6.6-32 .7-1.5 2.4-2.3 7.6-3.3 3.7-.6 7-.9 7.3-.6.3.3-2.7 17-6.7 37.1-3.9 20.2-7.1 36.8-6.9 37 .2.2 3.8-3.1 8-7.4l7.5-7.7 6.2-30.9c3.3-17 6.6-31.3 7.3-31.7 1.4-.9 13.7-3.3 14.3-2.8.2.2-3 17-7.1 37.3-4.1 20.3-7.2 37.1-7 37.3.2.2 3.8-3.5 8-8.1l7.6-8.4 6.3-30.9 6.2-30.8 7.8-1.9c4.3-1 8-1.7 8.2-1.4.3.2-2.8 17.1-6.9 37.4-4.1 20.3-7.3 37-7.2 37.1.1.2 3.8-3.6 8.2-8.5l7.9-8.7 5.9-30c3.2-16.5 6.4-30.5 7-31.2.6-.6 4.4-2 8.4-3.1l7.3-2.1-.7 3.7c-.4 2-3.7 18.7-7.3 36.9l-6.6 33.3 8-8 8-8 5.9-29.8c3.2-16.3 6.2-30.4 6.7-31.2.4-.8 4.6-2.9 9.3-4.6 7.3-2.7 8.6-2.9 8.6-1.5-.1.9-3.1 16.8-6.8 35.4l-6.7 33.7 8-8.6 8-8.7 6-29.6 6-29.6 8.5-4.2c5.5-2.8 8.6-3.8 8.7-3 .1.6-3 17.3-7 37l-7.3 35.7 8.1-8 8-8 6.5-32.8 6.6-32.7 6.9-3.7c3.9-2 7.1-3.3 7.3-2.8.3.7-11.1 60.6-12.4 65.5-.4 1.1 2.9-1.4 7.5-6l8.1-8 6.2-30.9 6.3-30.9 6.9-4.4c3.9-2.3 7.1-4.2 7.2-4 .1.1-2.6 14.4-6.1 31.7-3.5 17.3-6.2 31.6-6.1 31.7.1.1 3.7-3.2 7.9-7.5l7.7-7.7 5.9-29.3c3.2-16.1 6-29.4 6.2-29.5.2-.2 3-2.2 6.2-4.6 3.2-2.3 6.1-4 6.4-3.7.4.3-2.3 15-5.8 32.6l-6.4 32 8.1-8.7 8.2-8.8 5.6-28.5c3.2-15.7 5.9-29.2 6.2-30.1.3-1.3 13.4-12.6 13.4-11.7 0 .2-2.7 13.8-6 30.2-3.3 16.5-5.8 30.1-5.7 30.2.1.1 3.8-3.7 8.1-8.3l8-8.5L474 812l5.6-28.7 6-5.6c3.2-3 6-5.2 6.2-4.8.1.4-2.2 13-5.2 28.1l-5.3 27.5 8.1-8.9 8.1-8.9 5.7-28.2 5.7-28.3 7.5-10.2c4.2-5.6 7.6-9.7 7.6-9.3 0 .5-2 10.8-4.4 22.9-2.4 12-4.3 22-4.2 22.1.1.1 3.7-3.2 7.9-7.5l7.7-7.7 6.8-34c6.4-31.8 7.2-34.7 12-45.5 2.8-6.3 5.2-11.1 5.2-10.5 0 .9-5.4 29.5-6.5 34-.2 1.1 3-1.5 7.7-6.2l8.1-8.1 7.6-38.8 7.7-38.9 8.9-15.5c29.4-51.3 42-69.8 60.7-88.8 5-5.1 12.7-12 17.1-15.5 4.4-3.4 8.8-6.9 9.9-7.7 1.7-1.3 1.8-2.7 1.6-12.8l-.3-11.3-9.5 6.5z"/><path d="M323.8 595.2l92.2 92.3 36.2 8.3c19.8 4.5 36.2 8.1 36.4 7.9.2-.1-40.9-41.5-91.3-91.9l-91.7-91.7-35.5-8.1c-19.6-4.5-36.3-8.3-37.1-8.6-.8-.3 40 41 90.8 91.8zM224 678.6l91.5 91.9 18.5 4.3c10.2 2.4 27 6.3 37.4 8.7l18.9 4.3-92.2-92.2-92.1-92.1-34.7-7.9c-19.2-4.4-35.7-8.2-36.8-8.4-1.1-.2 39.2 40.9 89.5 91.4z"/></svg>